<svg xmlns="http://www.w3.org/2000/svg" xmlns:xlink="http://www.w3.org/1999/xlink" viewBox="0 0 611.8 119.8">
    <defs>
        <path id="a" d="M0 0h611.8v119.8H0z"/>
    </defs>
    <clipPath id="b">
        <use xlink:href="#a" overflow="visible"/>
    </clipPath>
    <path clip-path="url(#b)" fill-rule="evenodd" clip-rule="evenodd" fill="#ffffff" d="M806.5 81.4c-1.1-9.2-10.1-13.8-21.3-11.5-2.9-5.7-12.7-9-26.1-1.8-4-10.2-10.6-16.1-22-14.5-3.1-5.6-10.8-9.3-16.2-2.3-7.7-10.1-13.6-11.4-21.3-3.8-5.7-7.9-14.7-10.2-17.9.9-9.1-3.7-15.5-.2-17.9 9.4-3.4-1.4-7.2 4.3-7.3 7.7-10-1-16.3 2.1-21.8 12.9-6.5-9.9-10-14.5-21.5-10.1 1.1-9.3-4.6-21-22.4-18.2-2.6-6.1-21.3-20.2-43.7-4.6-11-5.3-22.1 3.5-22.4 13.4-10.1-6.3-22.1-4.6-27.1 6.7-8.9-8.5-25-18-40.9-1.9-3.4-4.5-9.6-7.7-16-1.9-3.9-2.4-10.5-.6-10.9 5.9-20.2-.1-24 6.2-30.1 23.8-10.1-4.4-15.4.4-17.7 9.5-8-1.2-14 1.2-15.7 10.7-6.1-7-13.2-5.1-16.7 2.6-6.3-5.4-12.9-2.6-15.6 6.6-7.8-1.9-22.3 8.4-20.8 22.2-24.4 5.4-57.5 19.1-58.6 54.7-.5 17.5 8.3 32.3 19.8 42.1 18.7 16.1 44.6 20.9 67.1 20.9h501l6-.5V99c-4.2-5.5-9.9-9.7-19.9-6.8-1.9-10.4-17.3-13.3-22.1-10.8z"/>
    <path clip-path="url(#b)" fill-rule="evenodd" clip-rule="evenodd" fill="#ffffff" d="M-116.6 119c1.1-9.2 10.1-13.8 21.3-11.5 2.9-5.7 12.7-9 26.1-1.8 4-10.2 10.6-16.1 22-14.5 3.1-5.6 10.8-9.3 16.2-2.3 7.7-10.1 13.6-11.4 21.3-3.8 1-8.3 14.6-10.2 17.8.9 9.1-3.7 15.5-.2 17.9 9.4 3.4-1.4 7.2 4.3 7.3 7.7 10-1 16.3 2.1 21.8 12.9 6.5-9.9 10-14.5 21.5-10.1 1.9-9.5 6.6-18.7 22.4-18.2 2.6-6.1 4.8-6.7 10.2-6.9 10.6-6.5 25-3.3 33.4 2.3 14.2-3.4 20.7 4.6 22.4 13.4 11.1-5.2 21.3-7.3 27.1 6.7 10.6-13.5 26.6-16.6 40.9-1.9 3.4-4.5 10.3-8.9 16-1.9 3.9-2.4 10.7-.7 10.9 5.9 20.2-.1 24 6.2 30.1 23.8 10.1-4.4 15.4.4 17.7 9.5 8-1.2 14 1.2 15.7 10.7 6.1-7 13.2-5.1 16.7 2.6 6.3-5.4 12.9-2.6 15.6 6.6 7.8-1.9 22.3 8.4 20.8 22.2 24.4 5.4 57.5 19.1 58.6 54.7.5 17.5-8.3 32.3-19.8 42.1-18.7 16.1-44.6 20.9-67.1 20.9h-501l-6-.5V136.6c4.2-5.5 9.9-9.7 19.9-6.8 2.1-10.4 17.5-13.3 22.3-10.8z"/>
    <path clip-path="url(#b)" fill-rule="evenodd" clip-rule="evenodd" fill="#ffffff" d="M411.7 116.7c-5.8-7.9-13-9.1-19.4-2.8-3-7.1-14.3-12.3-24.1-6.3-.9-5.1-16.3-16.6-25.5-6.8-.7-3.4-4.7-13.3-14.8-7.5-4.8-4.8-14.7-3.4-14.9 4.1-13.2-4.9-15.6 2.1-16.2 4.9-6.9-4.2-12.7-2.6-15.7 4.6-4.7-1.1-11.7-1.4-15.2 4.7-4.9 1.4-12.2 5.2-12.7 14.4-7.5-9.9-12.5-7.2-19-4.6-7.9-4.3-15.4.4-17.1 4.2-5.5-.2-10.8 2.1-14.1 8.9-5.7-5.3-14.6-3-18 1.1-6.9-1.9-12.5-.9-14.4 5.4-3.1-7.5-13.2-7.4-14.3-4-4.5-5.6-18.4-4.1-20.5 3.9.2-1.5-12.1 2.3-11.9 9.9-3.8-1.5-7.2-7.5-17.1-2.7-2-3.8-10.1-5.8-14.4-.3-8.6-1.8-17.3.6-19.2 12.4-1.3-4.6-6.3-10.4-11.4-8.7-2.1-5.1-14.4-9.6-16.6-3.2-5.4-6.4-7.9-9.1-15.1-6.8-6.8-8.4-16.3-9.4-21.6-3-3.8-2.5-14.9 1.4-14.4 7.1-3.7-6-8.8-6.9-14.5-1.9-4.2-1-9.7-1.1-10.2 7.1-6-7-11.1-8.1-18.9-4.5-6.6-10.5-17.5-10.4-22.1-4.7 2.5-12.4-6.4-18.6-13.3-20-5.2-5.4-11.5-2.1-12.7 2.5-4.4-1.1-8.5 2-8.8 6.8-1.8-3.7-5.2-5.1-9.9-4V271h627.8c52.4 0 57.9-28.4 51.2-64.8 6.8-23.6.7-47.7-21.8-64.2-.4-12.1-7.5-14.8-14-14.8-5.7-7-14.8-7.7-25.3.6-6.3-3.7-15.8-2.2-21.3 6.4.9-8.8-10.1-16.5-15.4-12.5-9.7-10.4-21-7.5-26.4-3.2-6.4-9.2-13.4-10.8-26.8-1.8z"/>
    <path clip-path="url(#b)" fill="none" d="M0-216h611.8v611.8H0z"/>
</svg>